<svg width="28" height="29" viewBox="0 0 28 29" fill="none" xmlns="http://www.w3.org/2000/svg">
<path d="M15 1.50819C15 0.955909 14.5523 0.508194 14 0.508194C13.4477 0.508194 13 0.955909 13 1.50819H15ZM13 27.5082C13 28.0605 13.4477 28.5082 14 28.5082C14.5523 28.5082 15 28.0605 15 27.5082H13ZM1 13.5082C0.447715 13.5082 0 13.9559 0 14.5082C0 15.0605 0.447715 15.5082 1 15.5082V13.5082ZM27 15.5082C27.5523 15.5082 28 15.0605 28 14.5082C28 13.9559 27.5523 13.5082 27 13.5082V15.5082ZM13 1.50819V14.5082H15V1.50819H13ZM13 14.5082V27.5082H15V14.5082H13ZM14 13.5082H1V15.5082H14V13.5082ZM1 15.5082H27V13.5082H1V15.5082Z" fill="black"/>
</svg>
